<?xml version="1.0" encoding="UTF-8"?> <svg xmlns="http://www.w3.org/2000/svg" width="195.443" height="82.966" viewBox="0 0 195.443 82.966"><path id="Union_11" data-name="Union 11" d="M2229.591,82.908c-15.428-.309-19.19-1.356-19.276-1.374-.068,0-6.476-1.563-6.613-6.03a5.42,5.42,0,0,1,1.786-4.036c.206-.207,19.756-18.486,25.631-24.172,3.041,4.089,16.579,22.3,17.919,24.292q.18.284.567.773c1.168,1.512,3.607,4.656,3.006,7.009a3.747,3.747,0,0,1-2.439,2.371l-.069.035c-.106.061-2.487,1.192-15.193,1.192C2233.307,82.966,2231.538,82.948,2229.591,82.908Zm-27.625-16.749,8.727-25.547,5.463-17.78c6.133,3.367,13.864,7.662,13.9,7.679,2.938,1.461,4.639,3.264,5.034,5.308.688,3.711-2.9,7.68-4.432,9.381-.154.172-.292.326-.361.412-3.469,3.384-25.477,24.343-25.717,24.566a7.445,7.445,0,0,0-2.439,4.914C2200.987,72.584,2200.935,69.577,2201.966,66.159Zm75.848-15.566c.051-8.452,9.5-10.17,15.41-7.576V41.351c-.893-4.931-8.057-5.24-11.321-1.7l-3.316-3.058a12.529,12.529,0,0,1,9.758-4.261c5.24,0,10.583,2.8,10.583,8.865V58.428a29.632,29.632,0,0,1-9.836,1.831C2283.144,60.259,2277.814,57.878,2277.814,50.594Zm5.583,0c-.31,5.446,5.807,5.292,9.809,4.209V47.9a11.4,11.4,0,0,0-4.581-.938C2286.045,46.958,2283.552,47.872,2283.4,50.594Zm60.54.292V41.437c0-6.27,5.343-9.242,10.635-9.242,5.136,0,10.479,2.955,10.479,9.242v7.319H2349.71v2.13c-.1,4.415,7.576,5.5,9.758.979l4.759,2.766a11.226,11.226,0,0,1-9.655,5.5C2349.281,60.128,2343.938,57.071,2343.938,50.886Zm5.773-9.432v2.595h9.861v-2.7c0-2.51-2.5-3.782-4.989-3.782S2349.607,38.854,2349.71,41.454Zm-20.856,8.968V22.832h5.652v9.86h5.136v5.7h-5.136V50.387c0,4.261,2.852,4.519,5.962,4.519v4.913a15.932,15.932,0,0,1-2.327.178C2332.93,60,2328.854,57.13,2328.854,50.423Zm40.475.275V41.609c0-6.219,5.342-9.242,10.582-9.242,4.209,0,8.968,1.924,10.428,7.061l-5.188,1.976c-1.409-5.034-9.552-4.261-10.119.155v9.191c.567,4.415,8.71,5.188,10.119.155l5.292,1.975c-1.461,5.137-6.323,7.061-10.532,7.061C2374.672,59.94,2369.329,56.933,2369.329,50.7Zm-65.231,0V41.609c0-6.219,5.343-9.242,10.582-9.242,4.209,0,8.969,1.924,10.428,7.061l-5.187,1.976c-1.409-5.034-9.553-4.261-10.12.155v9.191c.567,4.415,8.71,5.188,10.12.155l5.291,1.975c-1.461,5.137-6.323,7.061-10.532,7.061C2309.441,59.94,2304.1,56.933,2304.1,50.7ZM2266.9,59.837a8.79,8.79,0,0,1-8.8-8.8V22.832h5.995V50.1a3.681,3.681,0,0,0,3.677,3.676h7.164v6.064Zm-30.168-24.188c-.464-2.663-2.473-4.9-5.927-6.58-.292-.172-30.271-16.682-30.734-16.939l-.155-.086c-1.34-.773-4.93-2.817-4.9-5.206l-.017-.137a3.262,3.262,0,0,1,.309-1.6c.4-.841,3.007-5.1,15.05-5.1,13.589.6,20.255,9.466,20.306,9.535l.086.1a33.652,33.652,0,0,1,6.51,11.75,21.977,21.977,0,0,1-.463,14.929C2236.789,36.095,2236.772,35.871,2236.737,35.648Zm21.354-12.816h.018Z" transform="translate(-2195)" fill="#fff"></path></svg> 